<svg version="1.1" id="Layer_1" xmlns="http://www.w3.org/2000/svg" xmlns:xlink="http://www.w3.org/1999/xlink" x="0px" y="0px"
	 width="100%" viewBox="0 0 783 290" enable-background="new 0 0 783 290" xml:space="preserve">
<path fill="#FDFDFE" opacity="1.000000" stroke="none" 
	d="
M516.000000,291.000000 
	C344.039917,291.000000 172.579849,291.000000 1.059892,291.000000 
	C1.059892,194.395798 1.059892,97.791550 1.059892,1.093650 
	C261.876770,1.093650 522.753601,1.093650 783.815186,1.093650 
	C783.815186,97.666382 783.815186,194.333160 783.815186,291.000000 
	C694.791504,291.000000 605.645752,291.000000 516.000000,291.000000 
M45.227398,66.004868 
	C43.133099,66.481720 41.038795,66.958565 38.506805,67.535072 
	C38.506805,69.116264 38.506817,70.749748 38.506805,72.383232 
	C38.506592,103.804535 38.501644,135.225830 38.521004,166.647125 
	C38.521912,168.123688 38.739204,169.600113 39.277237,171.859161 
	C50.518806,171.859161 61.760380,171.859161 73.543114,171.859161 
	C73.543114,169.861435 73.543648,168.079163 73.543030,166.296875 
	C73.537666,150.713531 73.489441,135.129913 73.591782,119.547279 
	C73.602150,117.967789 74.519432,116.394257 75.495682,114.989090 
	C75.659462,114.944221 75.823235,114.899345 76.737000,115.000473 
	C77.495682,114.948318 78.254356,114.896164 79.855827,114.992500 
	C81.563057,114.943054 83.270294,114.893616 85.804268,114.999359 
	C87.201294,114.947662 88.598328,114.895966 90.875267,114.992897 
	C93.251617,114.943413 95.627975,114.893929 98.667862,114.997871 
	C99.116035,114.946594 99.564209,114.895317 100.746513,114.992348 
	C101.490463,114.942909 102.234413,114.893471 103.830185,114.999123 
	C105.557442,114.946404 107.284706,114.893684 109.662323,114.987701 
	C110.101379,114.938866 110.540428,114.890022 111.651413,114.994545 
	C112.105232,114.944054 112.559052,114.893562 113.887749,114.992165 
	C116.252769,115.019104 118.617790,115.046036 121.065590,115.997925 
	C121.070374,133.118225 121.052795,150.238632 121.119461,167.358688 
	C121.125229,168.839828 121.687645,170.318817 122.909958,172.013992 
	C132.597229,171.968399 142.284485,171.922806 152.490387,172.029694 
	C152.663849,171.980850 152.837296,171.931992 153.499329,172.029709 
	C153.663391,171.985062 153.827454,171.940414 154.765610,172.065918 
	C156.988739,172.212021 158.512085,171.724487 157.788712,168.079422 
	C157.687485,151.754227 157.586273,135.429016 158.129654,119.138771 
	C161.765488,123.181770 165.514847,127.129181 169.015121,131.286316 
	C178.198853,142.193436 187.274017,153.192001 196.940857,164.813416 
	C197.367767,150.431946 205.755997,143.454514 218.156158,139.492523 
	C210.181503,130.553253 202.612808,122.069046 194.811203,113.323769 
	C197.093796,112.435234 198.813614,111.831978 200.480286,111.106598 
	C215.086136,104.749855 223.995071,93.798149 225.785629,77.910248 
	C227.582275,61.968403 223.299896,48.101330 209.289185,38.703110 
	C200.812714,33.017197 191.253998,30.131819 181.076553,29.943195 
	C162.599472,29.600756 144.116638,29.562714 125.635925,29.437609 
	C124.196381,29.427864 122.754715,29.731150 120.892006,29.935173 
	C120.892006,49.097221 120.892006,67.901749 119.970795,86.703651 
	C104.987450,86.781685 90.004105,86.859726 74.292145,86.433510 
	C74.044052,84.681122 73.591179,82.929916 73.581123,81.176163 
	C73.516174,69.845444 73.547874,58.514172 73.547874,45.960232 
	C66.017288,56.246368 57.036259,62.631023 45.227398,66.004868 
M755.851013,206.108719 
	C750.364441,205.885742 744.873352,205.741791 739.392334,205.423050 
	C728.587769,204.794678 721.489868,211.950363 722.991882,222.259506 
	C723.315613,224.481232 724.377930,226.595337 725.149109,228.905869 
	C721.107971,233.779327 720.246155,238.818985 725.328186,243.702698 
	C724.529175,244.603455 723.963989,245.204086 723.439026,245.837952 
	C717.688232,252.781235 719.882690,260.450989 728.542236,262.855438 
	C735.414551,264.763611 742.393372,264.855347 749.127075,262.083893 
	C755.173706,259.595276 758.076904,254.583633 757.161377,248.672150 
	C756.417175,243.866547 752.133606,240.513214 745.831726,239.969635 
	C741.682190,239.611725 737.505798,239.548111 733.362305,239.140549 
	C728.205261,238.633270 727.302063,236.519608 730.221619,231.985123 
	C737.173889,234.870483 744.052734,234.907883 749.646851,229.369278 
	C754.633118,224.432404 754.280334,218.330246 751.384094,212.259735 
	C758.540894,211.729156 758.871765,211.352707 755.851013,206.108719 
M48.535351,248.149612 
	C49.390690,246.727036 50.934620,245.328491 50.985218,243.877853 
	C51.238777,236.608154 51.101372,229.324814 51.101372,222.041092 
	C60.029102,222.041092 68.400757,222.041092 77.219269,222.041092 
	C77.219269,230.799637 77.219269,239.219894 77.219269,247.900085 
	C79.772171,247.900085 81.870422,247.900085 84.320419,247.900085 
	C84.320419,228.923233 84.320419,210.205566 84.320419,191.309586 
	C81.810539,191.309586 79.612984,191.309586 76.855629,191.309586 
	C76.855629,199.451035 76.855629,207.170837 76.855629,214.736130 
	C68.021919,214.736130 59.755596,214.736130 50.951164,214.736130 
	C50.951164,206.770630 50.951164,199.036270 50.951164,191.169464 
	C48.310303,191.169464 46.215069,191.169464 44.246635,191.169464 
	C43.986557,191.767731 43.739830,192.071228 43.738689,192.375656 
	C43.672474,210.021439 43.652580,227.667435 43.554504,245.313004 
	C43.537125,248.440567 45.632751,248.135834 48.535351,248.149612 
M349.990479,222.830627 
	C349.729950,221.361099 349.533997,219.876663 349.198822,218.424362 
	C346.248016,205.637238 334.638397,201.350037 324.026642,209.107666 
	C323.180908,209.725922 322.298798,210.294418 320.763550,211.344223 
	C320.763550,202.785873 320.763550,195.053207 320.763550,187.193405 
	C318.291931,187.193405 316.249176,187.193405 314.106934,187.193405 
	C314.106934,207.623047 314.106934,227.654785 314.106934,247.886032 
	C316.161407,247.886032 317.912140,247.886032 319.758972,247.886032 
	C320.021057,246.122681 320.242249,244.634476 320.525085,242.731735 
	C321.628479,243.639908 322.255035,244.162506 322.888794,244.676193 
	C332.586548,252.536621 345.028961,249.012924 348.590912,237.028122 
	C349.838348,232.830841 349.586273,228.187881 349.990479,222.830627 
M380.880829,208.509308 
	C380.551300,214.921906 379.293060,221.449127 380.067810,227.725418 
	C382.317139,245.947922 400.883362,254.551636 416.906860,245.344391 
	C420.549103,243.251511 421.672607,240.632202 419.597229,236.565262 
	C417.059692,237.903198 414.810455,239.296494 412.404572,240.322433 
	C400.852448,245.248627 390.072418,239.565048 388.221802,227.198288 
	C387.494354,222.337097 387.450806,217.163559 388.251343,212.323380 
	C390.581482,198.234909 402.957886,192.848999 415.234497,200.193237 
	C416.556396,200.984039 417.901306,201.736343 419.417755,202.611664 
	C420.820526,196.313263 420.358673,195.175858 415.530304,192.909683 
	C403.425690,187.228363 386.607025,190.462021 380.880829,208.509308 
M457.026611,245.644119 
	C465.132111,239.600998 466.232819,231.129196 465.171661,221.952744 
	C464.325195,214.632950 461.086517,208.796234 453.732727,206.499344 
	C445.847168,204.036377 438.153778,204.612885 431.858154,210.671341 
	C424.757263,217.504745 423.801544,233.390274 429.729614,241.831802 
	C434.994476,249.328949 446.169312,251.086441 457.026611,245.644119 
M214.945557,247.709427 
	C225.128235,242.948120 229.063065,234.309158 227.079987,221.068146 
	C225.712006,211.934097 220.297195,206.662567 211.002289,205.415863 
	C201.650925,204.161606 193.370346,208.331360 190.073029,216.307709 
	C187.098206,223.503922 187.009918,230.920929 189.834137,238.186707 
	C193.334091,247.190964 201.948013,250.547256 214.945557,247.709427 
M108.856506,240.910843 
	C104.818352,237.960159 103.729500,233.871841 104.090057,228.640076 
	C112.088898,228.640076 119.871765,228.597610 127.653748,228.662262 
	C130.522842,228.686081 132.429138,228.032059 132.610397,224.619400 
	C133.140137,214.645294 127.824165,207.249161 118.736221,205.614105 
	C108.600830,203.790588 99.516037,209.030869 97.289673,218.843857 
	C96.215363,223.579056 96.112671,228.799301 96.817482,233.617432 
	C98.205597,243.106628 103.763802,248.202942 113.219521,248.678055 
	C117.925705,248.914490 122.776741,247.847565 127.441711,246.821945 
	C131.138199,246.009293 131.820999,243.388519 129.941589,239.872894 
	C123.127701,242.130249 116.515793,244.832397 108.856506,240.910843 
M287.971863,205.443390 
	C274.312988,204.512665 266.149902,212.525482 266.035156,226.976227 
	C265.917450,241.801590 273.534851,249.671997 287.471924,248.831009 
	C290.753510,248.632980 294.025085,247.772125 297.230682,246.943192 
	C300.923492,245.988251 301.806885,243.611237 300.195099,240.211151 
	C279.388000,244.309692 273.410187,241.730881 274.326569,228.640152 
	C282.058838,228.640152 289.838074,228.622894 297.617157,228.650070 
	C300.133759,228.658875 302.192993,228.375916 302.584198,225.158203 
	C303.739349,215.657272 298.227051,207.758881 287.971863,205.443390 
M558.466309,228.370316 
	C558.597839,231.029556 558.570862,233.707886 558.888489,236.344696 
	C560.195068,247.189636 570.454163,252.276291 579.965576,246.784225 
	C581.900757,245.666840 583.607056,244.153046 585.725098,242.597061 
	C585.967957,244.648254 586.151306,246.196854 586.336182,247.758194 
	C588.580994,247.758194 590.452759,247.758194 592.772217,247.758194 
	C592.772217,234.534851 592.863770,221.737579 592.598694,208.947693 
	C592.577393,207.922760 590.227478,206.460388 588.730652,206.062073 
	C586.297668,205.414627 585.170105,206.812744 585.205994,209.416351 
	C585.304504,216.577118 585.247864,223.740158 585.233521,230.902283 
	C585.222046,236.665817 579.500977,242.571121 574.026489,242.498474 
	C568.876953,242.430145 566.042847,238.633606 565.947998,231.426147 
	C565.862549,224.931351 565.924194,218.434647 565.917542,211.938782 
	C565.910950,205.462601 565.668213,205.272324 558.465637,206.653305 
	C558.465637,213.481155 558.465637,220.442093 558.466309,228.370316 
M702.184509,214.432938 
	C702.989990,218.101746 704.310242,221.745209 704.492493,225.444717 
	C704.857849,232.858383 704.600952,240.302734 704.600952,247.745987 
	C707.378967,247.745987 709.428101,247.745987 711.670410,247.745987 
	C711.670410,237.692459 712.391479,227.999252 711.493042,218.458557 
	C710.293884,205.724808 698.295471,201.233353 687.969238,209.044540 
	C686.856506,209.886292 685.734253,210.715469 684.455383,211.670700 
	C684.210938,209.535782 684.028198,207.939972 683.840698,206.302399 
	C681.777344,206.302399 680.042725,206.302399 678.177002,206.302399 
	C678.177002,220.353394 678.177002,234.066650 678.177002,248.162170 
	C680.617859,248.048370 682.666382,247.952866 685.010376,247.843582 
	C685.010376,239.120255 685.225952,230.971008 684.934021,222.839996 
	C684.741821,217.487839 688.349915,215.176712 691.972168,212.937088 
	C695.205383,210.938080 698.640625,211.167542 702.184509,214.432938 
M505.990814,208.418686 
	C497.630615,202.376587 490.426910,205.723236 483.504700,211.756927 
	C483.254211,209.613983 483.069092,208.030167 482.859589,206.238007 
	C480.914917,206.238007 479.168701,206.238007 477.125000,206.238007 
	C477.125000,220.226746 477.125000,233.944138 477.125000,247.774155 
	C479.495758,247.774155 481.541443,247.774155 484.010376,247.774155 
	C484.010376,239.746536 484.428772,232.083908 483.872345,224.492722 
	C483.459137,218.855652 486.328644,215.773193 490.380768,213.195099 
	C495.880768,209.695816 501.985596,212.117340 502.905090,218.541382 
	C503.701935,224.108276 503.463806,229.829559 503.585907,235.484695 
	C503.674194,239.573502 503.603149,243.665756 503.603149,248.170288 
	C506.433594,248.034180 508.484283,247.935562 510.733276,247.827408 
	C510.733276,237.806808 511.094940,228.318344 510.540527,218.883713 
	C510.341797,215.502609 507.931976,212.251434 505.990814,208.418686 
M173.533661,208.942947 
	C166.115662,203.385757 161.893341,203.815598 150.521255,211.402283 
	C150.263824,209.640198 150.019547,207.968246 149.780487,206.332001 
	C147.705826,206.332001 145.978058,206.332001 144.207718,206.332001 
	C144.207718,220.416748 144.207718,234.133438 144.207718,248.212433 
	C146.689362,248.069214 148.737885,247.950974 151.010483,247.819824 
	C151.010483,239.038330 150.991959,230.886475 151.017181,222.734741 
	C151.033264,217.534119 156.536758,211.985733 161.826736,211.772263 
	C166.959152,211.565140 169.830566,214.560043 170.376251,221.247192 
	C170.714142,225.387985 170.570023,229.570023 170.596436,233.733826 
	C170.625824,238.368423 170.603165,243.003357 170.603165,248.043610 
	C173.611832,247.368500 177.687546,250.556137 177.844788,245.110184 
	C178.089920,236.620178 178.194138,228.093140 177.638611,219.629013 
	C177.412415,216.182739 175.303040,212.860062 173.533661,208.942947 
M525.938782,247.846497 
	C530.986389,247.668503 536.190369,248.194427 541.038269,247.117523 
	C546.039001,246.006699 548.416931,241.641052 548.597595,236.535263 
	C548.768005,231.719742 546.303223,228.290970 542.051697,226.221863 
	C539.220947,224.844208 536.245544,223.766937 533.381836,222.452972 
	C530.308411,221.042847 527.815186,219.057877 528.875732,215.189636 
	C529.926819,211.356110 533.207397,210.681000 536.449097,211.118088 
	C539.624207,211.546204 542.693787,212.756790 545.889587,213.646179 
	C547.575195,209.917313 546.340149,207.373550 542.533752,206.503326 
	C539.511353,205.812363 536.276978,205.290298 533.232605,205.609177 
	C526.468506,206.317703 522.468872,210.045654 521.755066,215.458099 
	C520.973450,221.383911 523.349243,225.087555 529.920105,228.127594 
	C532.627319,229.380112 535.713867,230.144028 537.955872,231.959885 
	C539.585388,233.279724 541.058167,236.066910 540.843262,238.004990 
	C540.656555,239.688904 538.204651,242.023575 536.395081,242.415665 
	C533.634155,243.013916 530.507874,242.460052 527.643860,241.872925 
	C525.500732,241.433578 523.526489,240.170685 521.393188,239.237808 
	C519.581482,243.798080 521.080811,246.321716 525.938782,247.846497 
M622.623108,207.830750 
	C621.274475,213.892349 626.518433,211.394333 629.654053,212.849274 
	C629.654053,221.251450 629.277039,229.888748 629.765808,238.476761 
	C630.206665,246.223984 635.494385,249.807007 643.155212,248.716461 
	C647.590454,248.085068 649.333740,246.030869 647.658630,241.478027 
	C645.986511,241.783401 644.145508,242.706833 642.806030,242.227798 
	C640.753296,241.493607 637.519775,239.880096 637.440979,238.489365 
	C636.947998,229.791611 637.192017,221.052109 637.192017,212.074081 
	C640.932007,212.074081 644.235046,212.074081 647.738647,212.074081 
	C647.738647,209.965805 647.738647,208.138626 647.738647,205.855270 
	C643.812805,205.855270 640.393433,205.855270 637.799683,205.855270 
	C634.918213,202.309708 640.319702,195.743729 633.390869,195.445251 
	C625.347351,195.098755 631.577698,202.684311 628.746277,205.584473 
	C626.878357,206.058823 624.900085,206.561172 622.623108,207.830750 
M606.819580,243.361115 
	C606.914368,244.804184 607.009155,246.247253 607.108276,247.756531 
	C609.509399,247.756531 611.549316,247.756531 613.657104,247.756531 
	C613.657104,227.343353 613.657104,207.336914 613.657104,187.220520 
	C611.270020,187.220520 609.229553,187.220520 606.819336,187.220520 
	C606.819336,205.880600 606.819336,224.134186 606.819580,243.361115 
M238.808075,230.498734 
	C238.808075,236.254486 238.808075,242.010239 238.808075,247.734192 
	C241.570267,247.734192 243.612152,247.734192 246.007980,247.734192 
	C246.007980,239.512344 245.880722,231.721405 246.095718,223.939896 
	C246.150818,221.945724 246.958313,219.787872 247.988174,218.039886 
	C251.000397,212.927261 255.317581,210.542358 262.019226,213.107681 
	C261.704041,210.249146 261.583984,206.920685 260.185272,206.247055 
	C253.973129,203.255112 249.727600,207.435501 245.555466,212.065964 
	C245.243225,209.707275 245.019196,208.014908 244.794769,206.319595 
	C242.739151,206.319595 241.012039,206.319595 238.808060,206.319595 
	C238.808060,214.272583 238.808060,221.885971 238.808075,230.498734 
M232.851196,158.954773 
	C231.869034,157.851929 231.035568,156.550552 229.877213,155.682922 
	C226.183884,152.916489 220.043152,152.994949 216.282364,155.617401 
	C212.265961,158.418106 211.670792,162.514053 212.727966,166.695175 
	C213.931839,171.456406 217.847641,173.504639 222.453430,173.893921 
	C230.408829,174.566330 235.227081,168.061447 232.851196,158.954773 
M658.092041,206.950500 
	C658.092041,220.518005 658.092041,234.085495 658.092041,247.764175 
	C660.494568,247.764175 662.535583,247.764175 665.000122,247.764175 
	C665.000122,235.432419 664.730469,223.484497 665.122559,211.558319 
	C665.298523,206.204910 663.264526,205.099442 658.092041,206.950500 
M656.923096,194.541489 
	C656.999634,198.572281 660.012573,198.764679 662.508057,197.953842 
	C663.956177,197.483276 665.548218,195.120361 665.628906,193.535385 
	C665.690308,192.327332 663.666687,190.255890 662.234070,189.891449 
	C659.499817,189.195892 656.800171,189.814178 656.923096,194.541489 
z"/>
<path fill="#161747" opacity="1.000000" stroke="none" 
	d="
M89.995354,114.844269 
	C88.598328,114.895966 87.201294,114.947662 85.128876,114.678345 
	C82.639999,114.519562 80.826523,114.681786 79.013039,114.844009 
	C78.254356,114.896164 77.495682,114.948318 76.274757,114.779648 
	C75.546959,114.645195 75.281410,114.731575 75.015854,114.817955 
	C74.519432,116.394257 73.602150,117.967789 73.591782,119.547279 
	C73.489441,135.129913 73.537666,150.713531 73.543030,166.296875 
	C73.543648,168.079163 73.543114,169.861435 73.543114,171.859161 
	C61.760380,171.859161 50.518806,171.859161 39.391506,171.188950 
	C39.671825,168.720993 39.980762,166.923401 39.982609,165.125488 
	C40.012817,135.698578 40.040340,106.271523 39.959393,76.844803 
	C39.949104,73.104988 40.013653,69.852203 44.601196,68.804565 
	C45.242310,68.658165 45.540039,67.008102 45.996719,66.054092 
	C57.036259,62.631023 66.017288,56.246368 73.547874,45.960232 
	C73.547874,58.514172 73.516174,69.845444 73.581123,81.176163 
	C73.591179,82.929916 74.044052,84.681122 74.932632,87.000053 
	C90.022942,87.699852 104.472694,87.849808 118.922821,87.912163 
	C119.577461,87.914993 120.235535,87.126289 120.892006,86.706268 
	C120.892006,67.901749 120.892006,49.097221 120.892006,29.935173 
	C122.754715,29.731150 124.196381,29.427864 125.635925,29.437609 
	C144.116638,29.562714 162.599472,29.600756 181.076553,29.943195 
	C191.253998,30.131819 200.812714,33.017197 209.289185,38.703110 
	C223.299896,48.101330 227.582275,61.968403 225.785629,77.910248 
	C223.995071,93.798149 215.086136,104.749855 200.480286,111.106598 
	C198.813614,111.831978 197.093796,112.435234 194.811203,113.323769 
	C202.612808,122.069046 210.181503,130.553253 218.156158,139.492523 
	C205.755997,143.454514 197.367767,150.431946 196.940857,164.813416 
	C187.274017,153.192001 178.198853,142.193436 169.015121,131.286316 
	C165.514847,127.129181 161.765488,123.181770 157.420609,119.309357 
	C156.483154,120.084610 156.057114,120.688652 156.055237,121.294006 
	C156.008728,136.280640 155.979843,151.267578 156.064087,166.253799 
	C156.069229,167.168106 157.033951,168.077026 157.552185,168.988434 
	C158.512085,171.724487 156.988739,172.212021 154.289566,171.826355 
	C153.545929,171.685593 153.278336,171.784378 153.010727,171.883148 
	C152.837296,171.931992 152.663849,171.980850 151.921722,171.679169 
	C142.081879,170.938889 132.811539,170.522842 123.537262,170.231964 
	C123.038872,170.216339 122.507507,171.252335 121.991486,171.798798 
	C121.687645,170.318817 121.125229,168.839828 121.119461,167.358688 
	C121.052795,150.238632 121.070374,133.118225 120.776619,115.237518 
	C117.996056,114.599098 115.504463,114.721085 113.012871,114.843079 
	C112.559052,114.893562 112.105232,114.944054 111.163376,114.718857 
	C110.120872,114.575760 109.566422,114.708359 109.011963,114.840958 
	C107.284706,114.893684 105.557442,114.946404 103.211075,114.700859 
	C101.732109,114.549744 100.872246,114.696884 100.012383,114.844040 
	C99.564209,114.895317 99.116035,114.946594 98.240234,114.555176 
	C95.051720,112.699165 92.311172,111.503235 89.995354,114.844269 
M157.842300,85.437775 
	C157.842300,87.854301 157.842300,90.270828 157.842300,94.117752 
	C165.844467,92.675858 173.105438,91.997269 179.957321,89.949722 
	C186.371582,88.032974 188.768860,82.321243 189.189728,75.907600 
	C189.628601,69.219223 188.126373,63.007847 182.042175,59.476074 
	C174.602188,55.157269 166.259399,55.527027 157.843491,56.056965 
	C157.843491,65.864723 157.843491,75.159821 157.842300,85.437775 
z"/>
<path fill="#1B1E4D" opacity="1.000000" stroke="none" 
	d="
M756.272461,206.214798 
	C758.871765,211.352707 758.540894,211.729156 751.384094,212.259735 
	C754.280334,218.330246 754.633118,224.432404 749.646851,229.369278 
	C744.052734,234.907883 737.173889,234.870483 730.221619,231.985123 
	C727.302063,236.519608 728.205261,238.633270 733.362305,239.140549 
	C737.505798,239.548111 741.682190,239.611725 745.831726,239.969635 
	C752.133606,240.513214 756.417175,243.866547 757.161377,248.672150 
	C758.076904,254.583633 755.173706,259.595276 749.127075,262.083893 
	C742.393372,264.855347 735.414551,264.763611 728.542236,262.855438 
	C719.882690,260.450989 717.688232,252.781235 723.439026,245.837952 
	C723.963989,245.204086 724.529175,244.603455 725.328186,243.702698 
	C720.246155,238.818985 721.107971,233.779327 725.149109,228.905869 
	C724.377930,226.595337 723.315613,224.481232 722.991882,222.259506 
	C721.489868,211.950363 728.587769,204.794678 739.392334,205.423050 
	C744.873352,205.741791 750.364441,205.885742 756.272461,206.214798 
M749.084106,254.388016 
	C750.869080,248.827515 749.619324,246.525391 744.060120,245.775284 
	C740.778809,245.332520 737.193237,244.509171 734.198730,245.394135 
	C731.710876,246.129379 729.226440,248.761627 727.945374,251.189346 
	C726.529480,253.872238 728.278381,256.513123 731.265503,257.313477 
	C737.308960,258.932800 743.373657,259.740021 749.084106,254.388016 
M744.252808,213.364365 
	C742.963562,212.646301 741.753296,211.632568 740.370911,211.262970 
	C735.254150,209.895020 730.751770,212.759537 729.929321,217.707565 
	C728.949280,223.603394 731.720337,227.643295 737.024414,228.051285 
	C742.905334,228.503662 746.589844,225.069061 746.267090,219.143234 
	C746.172119,217.399399 745.309509,215.697357 744.252808,213.364365 
z"/>
<path fill="#1B1E4D" opacity="1.000000" stroke="none" 
	d="
M48.081364,248.165466 
	C45.632751,248.135834 43.537125,248.440567 43.554504,245.313004 
	C43.652580,227.667435 43.672474,210.021439 43.738689,192.375656 
	C43.739830,192.071228 43.986557,191.767731 44.246635,191.169464 
	C46.215069,191.169464 48.310303,191.169464 50.951164,191.169464 
	C50.951164,199.036270 50.951164,206.770630 50.951164,214.736130 
	C59.755596,214.736130 68.021919,214.736130 76.855629,214.736130 
	C76.855629,207.170837 76.855629,199.451035 76.855629,191.309586 
	C79.612984,191.309586 81.810539,191.309586 84.320419,191.309586 
	C84.320419,210.205566 84.320419,228.923233 84.320419,247.900085 
	C81.870422,247.900085 79.772171,247.900085 77.219269,247.900085 
	C77.219269,239.219894 77.219269,230.799637 77.219269,222.041092 
	C68.400757,222.041092 60.029102,222.041092 51.101372,222.041092 
	C51.101372,229.324814 51.238777,236.608154 50.985218,243.877853 
	C50.934620,245.328491 49.390690,246.727036 48.081364,248.165466 
z"/>
<path fill="#181B4A" opacity="1.000000" stroke="none" 
	d="
M350.004700,223.289520 
	C349.586273,228.187881 349.838348,232.830841 348.590912,237.028122 
	C345.028961,249.012924 332.586548,252.536621 322.888794,244.676193 
	C322.255035,244.162506 321.628479,243.639908 320.525085,242.731735 
	C320.242249,244.634476 320.021057,246.122681 319.758972,247.886032 
	C317.912140,247.886032 316.161407,247.886032 314.106934,247.886032 
	C314.106934,227.654785 314.106934,207.623047 314.106934,187.193405 
	C316.249176,187.193405 318.291931,187.193405 320.763550,187.193405 
	C320.763550,195.053207 320.763550,202.785873 320.763550,211.344223 
	C322.298798,210.294418 323.180908,209.725922 324.026642,209.107666 
	C334.638397,201.350037 346.248016,205.637238 349.198822,218.424362 
	C349.533997,219.876663 349.729950,221.361099 350.004700,223.289520 
M328.583649,212.536118 
	C323.171509,215.421860 319.861511,219.429291 320.955139,226.057190 
	C321.274902,227.994904 320.979126,230.030380 321.009521,232.020386 
	C321.077026,236.440643 325.760559,241.381882 330.749939,242.327728 
	C335.417511,243.212570 339.605469,241.058716 340.866974,235.760712 
	C341.990051,231.044006 342.287872,225.913818 341.801819,221.081604 
	C341.065308,213.759476 336.762024,211.070557 328.583649,212.536118 
z"/>
<path fill="#1B1E4D" opacity="1.000000" stroke="none" 
	d="
M380.958893,208.116974 
	C386.607025,190.462021 403.425690,187.228363 415.530304,192.909683 
	C420.358673,195.175858 420.820526,196.313263 419.417755,202.611664 
	C417.901306,201.736343 416.556396,200.984039 415.234497,200.193237 
	C402.957886,192.848999 390.581482,198.234909 388.251343,212.323380 
	C387.450806,217.163559 387.494354,222.337097 388.221802,227.198288 
	C390.072418,239.565048 400.852448,245.248627 412.404572,240.322433 
	C414.810455,239.296494 417.059692,237.903198 419.597229,236.565262 
	C421.672607,240.632202 420.549103,243.251511 416.906860,245.344391 
	C400.883362,254.551636 382.317139,245.947922 380.067810,227.725418 
	C379.293060,221.449127 380.551300,214.921906 380.958893,208.116974 
z"/>
<path fill="#1B1E4D" opacity="1.000000" stroke="none" 
	d="
M456.706482,245.834137 
	C446.169312,251.086441 434.994476,249.328949 429.729614,241.831802 
	C423.801544,233.390274 424.757263,217.504745 431.858154,210.671341 
	C438.153778,204.612885 445.847168,204.036377 453.732727,206.499344 
	C461.086517,208.796234 464.325195,214.632950 465.171661,221.952744 
	C466.232819,231.129196 465.132111,239.600998 456.706482,245.834137 
M456.971436,219.925446 
	C454.390381,213.498734 450.996216,211.052948 445.156189,211.411621 
	C439.619263,211.751678 435.341400,214.928894 434.460541,220.751190 
	C433.782959,225.229660 433.920471,230.048065 434.810120,234.492172 
	C435.924072,240.056686 440.207581,242.783646 445.709900,242.762939 
	C451.092499,242.742676 455.689148,239.804688 456.705231,234.467850 
	C457.551239,230.024185 457.031799,225.320557 456.971436,219.925446 
z"/>
<path fill="#1B1E4D" opacity="1.000000" stroke="none" 
	d="
M214.560181,247.825958 
	C201.948013,250.547256 193.334091,247.190964 189.834137,238.186707 
	C187.009918,230.920929 187.098206,223.503922 190.073029,216.307709 
	C193.370346,208.331360 201.650925,204.161606 211.002289,205.415863 
	C220.297195,206.662567 225.712006,211.934097 227.079987,221.068146 
	C229.063065,234.309158 225.128235,242.948120 214.560181,247.825958 
M195.744049,228.379684 
	C195.816101,229.372025 195.843216,230.370026 195.967361,231.355804 
	C196.853363,238.391357 200.660706,242.339188 206.917038,242.738937 
	C213.337463,243.149200 218.103867,239.515060 219.173416,232.348495 
	C219.792389,228.200974 219.556488,223.747192 218.761108,219.612869 
	C217.783585,214.531830 214.045731,211.831726 208.813034,211.426285 
	C203.580948,211.020844 199.005005,213.441284 197.281616,218.247055 
	C196.244919,221.137924 196.194336,224.382416 195.744049,228.379684 
z"/>
<path fill="#1F2150" opacity="1.000000" stroke="none" 
	d="
M109.211617,241.085602 
	C116.515793,244.832397 123.127701,242.130249 129.941589,239.872894 
	C131.820999,243.388519 131.138199,246.009293 127.441711,246.821945 
	C122.776741,247.847565 117.925705,248.914490 113.219521,248.678055 
	C103.763802,248.202942 98.205597,243.106628 96.817482,233.617432 
	C96.112671,228.799301 96.215363,223.579056 97.289673,218.843857 
	C99.516037,209.030869 108.600830,203.790588 118.736221,205.614105 
	C127.824165,207.249161 133.140137,214.645294 132.610397,224.619400 
	C132.429138,228.032059 130.522842,228.686081 127.653748,228.662262 
	C119.871765,228.597610 112.088898,228.640076 104.090057,228.640076 
	C103.729500,233.871841 104.818352,237.960159 109.211617,241.085602 
M105.634087,216.403793 
	C104.985924,218.473495 104.337769,220.543182 103.592491,222.923004 
	C111.213593,222.923004 117.956757,222.923004 124.902489,222.923004 
	C125.258324,217.884445 123.916435,213.951202 119.159149,211.876633 
	C114.271057,209.745026 110.283554,210.979599 105.634087,216.403793 
z"/>
<path fill="#1F2150" opacity="1.000000" stroke="none" 
	d="
M288.375092,205.533508 
	C298.227051,207.758881 303.739349,215.657272 302.584198,225.158203 
	C302.192993,228.375916 300.133759,228.658875 297.617157,228.650070 
	C289.838074,228.622894 282.058838,228.640152 274.326569,228.640152 
	C273.410187,241.730881 279.388000,244.309692 300.195099,240.211151 
	C301.806885,243.611237 300.923492,245.988251 297.230682,246.943192 
	C294.025085,247.772125 290.753510,248.632980 287.471924,248.831009 
	C273.534851,249.671997 265.917450,241.801590 266.035156,226.976227 
	C266.149902,212.525482 274.312988,204.512665 288.375092,205.533508 
M275.226196,217.067017 
	C274.747833,218.920166 274.269470,220.773331 273.735992,222.840027 
	C281.154144,222.840027 288.030975,222.840027 295.008911,222.840027 
	C295.119080,217.510101 293.674438,213.406921 288.432129,211.602356 
	C283.390137,209.866745 279.475098,211.367203 275.226196,217.067017 
z"/>
<path fill="#1E2150" opacity="1.000000" stroke="none" 
	d="
M558.465942,227.886688 
	C558.465637,220.442093 558.465637,213.481155 558.465637,206.653305 
	C565.668213,205.272324 565.910950,205.462601 565.917542,211.938782 
	C565.924194,218.434647 565.862549,224.931351 565.947998,231.426147 
	C566.042847,238.633606 568.876953,242.430145 574.026489,242.498474 
	C579.500977,242.571121 585.222046,236.665817 585.233521,230.902283 
	C585.247864,223.740158 585.304504,216.577118 585.205994,209.416351 
	C585.170105,206.812744 586.297668,205.414627 588.730652,206.062073 
	C590.227478,206.460388 592.577393,207.922760 592.598694,208.947693 
	C592.863770,221.737579 592.772217,234.534851 592.772217,247.758194 
	C590.452759,247.758194 588.580994,247.758194 586.336182,247.758194 
	C586.151306,246.196854 585.967957,244.648254 585.725098,242.597061 
	C583.607056,244.153046 581.900757,245.666840 579.965576,246.784225 
	C570.454163,252.276291 560.195068,247.189636 558.888489,236.344696 
	C558.570862,233.707886 558.597839,231.029556 558.465942,227.886688 
z"/>
<path fill="#181A4A" opacity="1.000000" stroke="none" 
	d="
M701.923218,214.117340 
	C698.640625,211.167542 695.205383,210.938080 691.972168,212.937088 
	C688.349915,215.176712 684.741821,217.487839 684.934021,222.839996 
	C685.225952,230.971008 685.010376,239.120255 685.010376,247.843582 
	C682.666382,247.952866 680.617859,248.048370 678.177002,248.162170 
	C678.177002,234.066650 678.177002,220.353394 678.177002,206.302399 
	C680.042725,206.302399 681.777344,206.302399 683.840698,206.302399 
	C684.028198,207.939972 684.210938,209.535782 684.455383,211.670700 
	C685.734253,210.715469 686.856506,209.886292 687.969238,209.044540 
	C698.295471,201.233353 710.293884,205.724808 711.493042,218.458557 
	C712.391479,227.999252 711.670410,237.692459 711.670410,247.745987 
	C709.428101,247.745987 707.378967,247.745987 704.600952,247.745987 
	C704.600952,240.302734 704.857849,232.858383 704.492493,225.444717 
	C704.310242,221.745209 702.989990,218.101746 701.923218,214.117340 
z"/>
<path fill="#181A4A" opacity="1.000000" stroke="none" 
	d="
M506.261078,208.679825 
	C507.931976,212.251434 510.341797,215.502609 510.540527,218.883713 
	C511.094940,228.318344 510.733276,237.806808 510.733276,247.827408 
	C508.484283,247.935562 506.433594,248.034180 503.603149,248.170288 
	C503.603149,243.665756 503.674194,239.573502 503.585907,235.484695 
	C503.463806,229.829559 503.701935,224.108276 502.905090,218.541382 
	C501.985596,212.117340 495.880768,209.695816 490.380768,213.195099 
	C486.328644,215.773193 483.459137,218.855652 483.872345,224.492722 
	C484.428772,232.083908 484.010376,239.746536 484.010376,247.774155 
	C481.541443,247.774155 479.495758,247.774155 477.125000,247.774155 
	C477.125000,233.944138 477.125000,220.226746 477.125000,206.238007 
	C479.168701,206.238007 480.914917,206.238007 482.859589,206.238007 
	C483.069092,208.030167 483.254211,209.613983 483.504700,211.756927 
	C490.426910,205.723236 497.630615,202.376587 506.261078,208.679825 
z"/>
<path fill="#181A4A" opacity="1.000000" stroke="none" 
	d="
M173.792068,209.212036 
	C175.303040,212.860062 177.412415,216.182739 177.638611,219.629013 
	C178.194138,228.093140 178.089920,236.620178 177.844788,245.110184 
	C177.687546,250.556137 173.611832,247.368500 170.603165,248.043610 
	C170.603165,243.003357 170.625824,238.368423 170.596436,233.733826 
	C170.570023,229.570023 170.714142,225.387985 170.376251,221.247192 
	C169.830566,214.560043 166.959152,211.565140 161.826736,211.772263 
	C156.536758,211.985733 151.033264,217.534119 151.017181,222.734741 
	C150.991959,230.886475 151.010483,239.038330 151.010483,247.819824 
	C148.737885,247.950974 146.689362,248.069214 144.207718,248.212433 
	C144.207718,234.133438 144.207718,220.416748 144.207718,206.332001 
	C145.978058,206.332001 147.705826,206.332001 149.780487,206.332001 
	C150.019547,207.968246 150.263824,209.640198 150.521255,211.402283 
	C161.893341,203.815598 166.115662,203.385757 173.792068,209.212036 
z"/>
<path fill="#1C1F4E" opacity="1.000000" stroke="none" 
	d="
M525.568604,247.701080 
	C521.080811,246.321716 519.581482,243.798080 521.393188,239.237808 
	C523.526489,240.170685 525.500732,241.433578 527.643860,241.872925 
	C530.507874,242.460052 533.634155,243.013916 536.395081,242.415665 
	C538.204651,242.023575 540.656555,239.688904 540.843262,238.004990 
	C541.058167,236.066910 539.585388,233.279724 537.955872,231.959885 
	C535.713867,230.144028 532.627319,229.380112 529.920105,228.127594 
	C523.349243,225.087555 520.973450,221.383911 521.755066,215.458099 
	C522.468872,210.045654 526.468506,206.317703 533.232605,205.609177 
	C536.276978,205.290298 539.511353,205.812363 542.533752,206.503326 
	C546.340149,207.373550 547.575195,209.917313 545.889587,213.646179 
	C542.693787,212.756790 539.624207,211.546204 536.449097,211.118088 
	C533.207397,210.681000 529.926819,211.356110 528.875732,215.189636 
	C527.815186,219.057877 530.308411,221.042847 533.381836,222.452972 
	C536.245544,223.766937 539.220947,224.844208 542.051697,226.221863 
	C546.303223,228.290970 548.768005,231.719742 548.597595,236.535263 
	C548.416931,241.641052 546.039001,246.006699 541.038269,247.117523 
	C536.190369,248.194427 530.986389,247.668503 525.568604,247.701080 
z"/>
<path fill="#212452" opacity="1.000000" stroke="none" 
	d="
M622.772461,207.447144 
	C624.900085,206.561172 626.878357,206.058823 628.746277,205.584473 
	C631.577698,202.684311 625.347351,195.098755 633.390869,195.445251 
	C640.319702,195.743729 634.918213,202.309708 637.799683,205.855270 
	C640.393433,205.855270 643.812805,205.855270 647.738647,205.855270 
	C647.738647,208.138626 647.738647,209.965805 647.738647,212.074081 
	C644.235046,212.074081 640.932007,212.074081 637.192017,212.074081 
	C637.192017,221.052109 636.947998,229.791611 637.440979,238.489365 
	C637.519775,239.880096 640.753296,241.493607 642.806030,242.227798 
	C644.145508,242.706833 645.986511,241.783401 647.658630,241.478027 
	C649.333740,246.030869 647.590454,248.085068 643.155212,248.716461 
	C635.494385,249.807007 630.206665,246.223984 629.765808,238.476761 
	C629.277039,229.888748 629.654053,221.251450 629.654053,212.849274 
	C626.518433,211.394333 621.274475,213.892349 622.772461,207.447144 
z"/>
<path fill="#121546" opacity="1.000000" stroke="none" 
	d="
M606.819458,242.874435 
	C606.819336,224.134186 606.819336,205.880600 606.819336,187.220520 
	C609.229553,187.220520 611.270020,187.220520 613.657104,187.220520 
	C613.657104,207.336914 613.657104,227.343353 613.657104,247.756531 
	C611.549316,247.756531 609.509399,247.756531 607.108276,247.756531 
	C607.009155,246.247253 606.914368,244.804184 606.819458,242.874435 
z"/>
<path fill="#161949" opacity="1.000000" stroke="none" 
	d="
M238.808075,229.999054 
	C238.808060,221.885971 238.808060,214.272583 238.808060,206.319595 
	C241.012039,206.319595 242.739151,206.319595 244.794769,206.319595 
	C245.019196,208.014908 245.243225,209.707275 245.555466,212.065964 
	C249.727600,207.435501 253.973129,203.255112 260.185272,206.247055 
	C261.583984,206.920685 261.704041,210.249146 262.019226,213.107681 
	C255.317581,210.542358 251.000397,212.927261 247.988174,218.039886 
	C246.958313,219.787872 246.150818,221.945724 246.095718,223.939896 
	C245.880722,231.721405 246.007980,239.512344 246.007980,247.734192 
	C243.612152,247.734192 241.570267,247.734192 238.808075,247.734192 
	C238.808075,242.010239 238.808075,236.254486 238.808075,229.999054 
z"/>
<path fill="#1C1D47" opacity="1.000000" stroke="none" 
	d="
M233.009964,159.316498 
	C235.227081,168.061447 230.408829,174.566330 222.453430,173.893921 
	C217.847641,173.504639 213.931839,171.456406 212.727966,166.695175 
	C211.670792,162.514053 212.265961,158.418106 216.282364,155.617401 
	C220.043152,152.994949 226.183884,152.916489 229.877213,155.682922 
	C231.035568,156.550552 231.869034,157.851929 233.009964,159.316498 
z"/>
<path fill="#131647" opacity="1.000000" stroke="none" 
	d="
M658.398804,206.607025 
	C663.264526,205.099442 665.298523,206.204910 665.122559,211.558319 
	C664.730469,223.484497 665.000122,235.432419 665.000122,247.764175 
	C662.535583,247.764175 660.494568,247.764175 658.092041,247.764175 
	C658.092041,234.085495 658.092041,220.518005 658.398804,206.607025 
z"/>
<path fill="#0D0F31" opacity="1.000000" stroke="none" 
	d="
M45.612061,66.029480 
	C45.540039,67.008102 45.242310,68.658165 44.601196,68.804565 
	C40.013653,69.852203 39.949104,73.104988 39.959393,76.844803 
	C40.040340,106.271523 40.012817,135.698578 39.982609,165.125488 
	C39.980762,166.923401 39.671825,168.720993 39.180748,170.797668 
	C38.739204,169.600113 38.521912,168.123688 38.521004,166.647125 
	C38.501644,135.225830 38.506592,103.804535 38.506805,72.383232 
	C38.506817,70.749748 38.506805,69.116264 38.506805,67.535072 
	C41.038795,66.958565 43.133099,66.481720 45.612061,66.029480 
z"/>
<path fill="#0F1135" opacity="1.000000" stroke="none" 
	d="
M157.670441,168.533936 
	C157.033951,168.077026 156.069229,167.168106 156.064087,166.253799 
	C155.979843,151.267578 156.008728,136.280640 156.055237,121.294006 
	C156.057114,120.688652 156.483154,120.084610 157.098297,119.291885 
	C157.586273,135.429016 157.687485,151.754227 157.670441,168.533936 
z"/>
<path fill="#1B1E4D" opacity="1.000000" stroke="none" 
	d="
M656.921265,194.123383 
	C656.800171,189.814178 659.499817,189.195892 662.234070,189.891449 
	C663.666687,190.255890 665.690308,192.327332 665.628906,193.535385 
	C665.548218,195.120361 663.956177,197.483276 662.508057,197.953842 
	C660.012573,198.764679 656.999634,198.572281 656.921265,194.123383 
z"/>
<path fill="#0C0D30" opacity="1.000000" stroke="none" 
	d="
M120.431396,86.704956 
	C120.235535,87.126289 119.577461,87.914993 118.922821,87.912163 
	C104.472694,87.849808 90.022942,87.699852 75.296936,87.252182 
	C90.004105,86.859726 104.987450,86.781685 120.431396,86.704956 
z"/>
<path fill="#0C112B" opacity="1.000000" stroke="none" 
	d="
M122.450722,171.906403 
	C122.507507,171.252335 123.038872,170.216339 123.537262,170.231964 
	C132.811539,170.522842 142.081879,170.938889 151.662415,171.602921 
	C142.284485,171.922806 132.597229,171.968399 122.450722,171.906403 
z"/>
<path fill="#181838" opacity="1.000000" stroke="none" 
	d="
M90.435310,114.918587 
	C92.311172,111.503235 95.051720,112.699165 97.908470,114.478462 
	C95.627975,114.893929 93.251617,114.943413 90.435310,114.918587 
z"/>
<path fill="#181838" opacity="1.000000" stroke="none" 
	d="
M113.450310,114.917618 
	C115.504463,114.721085 117.996056,114.599098 120.735229,114.775040 
	C118.617790,115.046036 116.252769,115.019104 113.450310,114.917618 
z"/>
<path fill="#181838" opacity="1.000000" stroke="none" 
	d="
M79.434433,114.918259 
	C80.826523,114.681786 82.639999,114.519562 84.715500,114.600754 
	C83.270294,114.893616 81.563057,114.943054 79.434433,114.918259 
z"/>
<path fill="#181838" opacity="1.000000" stroke="none" 
	d="
M100.379448,114.918190 
	C100.872246,114.696884 101.732109,114.549744 102.785172,114.623314 
	C102.234413,114.893471 101.490463,114.942909 100.379448,114.918190 
z"/>
<path fill="#181838" opacity="1.000000" stroke="none" 
	d="
M109.337143,114.914330 
	C109.566422,114.708359 110.120872,114.575760 110.827408,114.642166 
	C110.540428,114.890022 110.101379,114.938866 109.337143,114.914330 
z"/>
<path fill="#181838" opacity="1.000000" stroke="none" 
	d="
M75.255768,114.903519 
	C75.281410,114.731575 75.546959,114.645195 75.899765,114.706650 
	C75.823235,114.899345 75.659462,114.944221 75.255768,114.903519 
z"/>
<path fill="#0F1135" opacity="1.000000" stroke="none" 
	d="
M153.255035,171.956436 
	C153.278336,171.784378 153.545929,171.685593 153.902527,171.741302 
	C153.827454,171.940414 153.663391,171.985062 153.255035,171.956436 
z"/>
<path fill="#FAFAFB" opacity="1.000000" stroke="none" 
	d="
M157.842896,84.946350 
	C157.843491,75.159821 157.843491,65.864723 157.843491,56.056965 
	C166.259399,55.527027 174.602188,55.157269 182.042175,59.476074 
	C188.126373,63.007847 189.628601,69.219223 189.189728,75.907600 
	C188.768860,82.321243 186.371582,88.032974 179.957321,89.949722 
	C173.105438,91.997269 165.844467,92.675858 157.842300,94.117752 
	C157.842300,90.270828 157.842300,87.854301 157.842896,84.946350 
z"/>
<path fill="#F6F6F8" opacity="1.000000" stroke="none" 
	d="
M748.868103,254.719070 
	C743.373657,259.740021 737.308960,258.932800 731.265503,257.313477 
	C728.278381,256.513123 726.529480,253.872238 727.945374,251.189346 
	C729.226440,248.761627 731.710876,246.129379 734.198730,245.394135 
	C737.193237,244.509171 740.778809,245.332520 744.060120,245.775284 
	C749.619324,246.525391 750.869080,248.827515 748.868103,254.719070 
z"/>
<path fill="#FAFAFB" opacity="1.000000" stroke="none" 
	d="
M744.525757,213.670258 
	C745.309509,215.697357 746.172119,217.399399 746.267090,219.143234 
	C746.589844,225.069061 742.905334,228.503662 737.024414,228.051285 
	C731.720337,227.643295 728.949280,223.603394 729.929321,217.707565 
	C730.751770,212.759537 735.254150,209.895020 740.370911,211.262970 
	C741.753296,211.632568 742.963562,212.646301 744.525757,213.670258 
z"/>
<path fill="#FAFAFB" opacity="1.000000" stroke="none" 
	d="
M328.947144,212.352463 
	C336.762024,211.070557 341.065308,213.759476 341.801819,221.081604 
	C342.287872,225.913818 341.990051,231.044006 340.866974,235.760712 
	C339.605469,241.058716 335.417511,243.212570 330.749939,242.327728 
	C325.760559,241.381882 321.077026,236.440643 321.009521,232.020386 
	C320.979126,230.030380 321.274902,227.994904 320.955139,226.057190 
	C319.861511,219.429291 323.171509,215.421860 328.947144,212.352463 
z"/>
<path fill="#F9F9FA" opacity="1.000000" stroke="none" 
	d="
M457.044312,220.328766 
	C457.031799,225.320557 457.551239,230.024185 456.705231,234.467850 
	C455.689148,239.804688 451.092499,242.742676 445.709900,242.762939 
	C440.207581,242.783646 435.924072,240.056686 434.810120,234.492172 
	C433.920471,230.048065 433.782959,225.229660 434.460541,220.751190 
	C435.341400,214.928894 439.619263,211.751678 445.156189,211.411621 
	C450.996216,211.052948 454.390381,213.498734 457.044312,220.328766 
z"/>
<path fill="#F9F9FA" opacity="1.000000" stroke="none" 
	d="
M195.722321,227.923828 
	C196.194336,224.382416 196.244919,221.137924 197.281616,218.247055 
	C199.005005,213.441284 203.580948,211.020844 208.813034,211.426285 
	C214.045731,211.831726 217.783585,214.531830 218.761108,219.612869 
	C219.556488,223.747192 219.792389,228.200974 219.173416,232.348495 
	C218.103867,239.515060 213.337463,243.149200 206.917038,242.738937 
	C200.660706,242.339188 196.853363,238.391357 195.967361,231.355804 
	C195.843216,230.370026 195.816101,229.372025 195.722321,227.923828 
z"/>
<path fill="#FAFAFB" opacity="1.000000" stroke="none" 
	d="
M105.834366,216.068054 
	C110.283554,210.979599 114.271057,209.745026 119.159149,211.876633 
	C123.916435,213.951202 125.258324,217.884445 124.902489,222.923004 
	C117.956757,222.923004 111.213593,222.923004 103.592491,222.923004 
	C104.337769,220.543182 104.985924,218.473495 105.834366,216.068054 
z"/>
<path fill="#FAFAFB" opacity="1.000000" stroke="none" 
	d="
M275.431152,216.733978 
	C279.475098,211.367203 283.390137,209.866745 288.432129,211.602356 
	C293.674438,213.406921 295.119080,217.510101 295.008911,222.840027 
	C288.030975,222.840027 281.154144,222.840027 273.735992,222.840027 
	C274.269470,220.773331 274.747833,218.920166 275.431152,216.733978 
z"/>
</svg>